<svg xmlns="http://www.w3.org/2000/svg" viewBox="0 0 600 450" role="img" aria-label="Illustration of a handheld GPS device">
  <defs>
    <linearGradient id="g-bg" x1="0" x2="0" y1="0" y2="1">
      <stop offset="0" stop-color="#1c2430"/>
      <stop offset="1" stop-color="#0b0d0e"/>
    </linearGradient>
  </defs>
  <rect width="600" height="450" fill="url(#g-bg)"/>
  <ellipse cx="300" cy="415" rx="140" ry="10" fill="#000" opacity="0.4"/>
  <g transform="translate(300,225)">
    <rect x="-110" y="-160" width="220" height="320" rx="22" fill="#1a1d20" stroke="#2a2f33" stroke-width="3"/>
    <rect x="-95" y="-145" width="190" height="210" rx="8" fill="#0f1c1a"/>
    <path d="M-85,-30 Q-60,-60 -30,-20 Q0,20 40,-10 Q70,-30 85,10" stroke="#e89558" stroke-width="3" fill="none"/>
    <circle cx="85" cy="10" r="5" fill="#e89558"/>
    <g stroke="#2a3a38" stroke-width="1" opacity="0.6">
      <line x1="-95" y1="-100" x2="95" y2="-100"/>
      <line x1="-95" y1="-70" x2="95" y2="-70"/>
      <line x1="-95" y1="-40" x2="95" y2="-40"/>
      <line x1="-95" y1="-10" x2="95" y2="-10"/>
      <line x1="-95" y1="20" x2="95" y2="20"/>
      <line x1="-95" y1="50" x2="95" y2="50"/>
      <line x1="-60" y1="-145" x2="-60" y2="65"/>
      <line x1="-30" y1="-145" x2="-30" y2="65"/>
      <line x1="0" y1="-145" x2="0" y2="65"/>
      <line x1="30" y1="-145" x2="30" y2="65"/>
      <line x1="60" y1="-145" x2="60" y2="65"/>
    </g>
    <text x="-85" y="-120" fill="#9aa5b1" font-family="monospace" font-size="10">N 44°03.218'</text>
    <text x="-85" y="-108" fill="#9aa5b1" font-family="monospace" font-size="10">W 122°14.892'</text>
    <rect x="-40" y="90" width="80" height="60" rx="8" fill="#11161a"/>
    <circle cx="0" cy="120" r="16" fill="#1a1d20" stroke="#2a2f33" stroke-width="2"/>
    <circle cx="0" cy="120" r="6" fill="#e89558"/>
  </g>
</svg>
