<svg xmlns="http://www.w3.org/2000/svg" viewBox="0 0 600 450" role="img" aria-label="Illustration of an insulated puffy jacket">
  <defs>
    <linearGradient id="j-bg" x1="0" x2="0" y1="0" y2="1">
      <stop offset="0" stop-color="#202c38"/>
      <stop offset="1" stop-color="#0b0d0e"/>
    </linearGradient>
    <linearGradient id="j-body" x1="0" x2="0" y1="0" y2="1">
      <stop offset="0" stop-color="#2d4e4c"/>
      <stop offset="1" stop-color="#162726"/>
    </linearGradient>
  </defs>
  <rect width="600" height="450" fill="url(#j-bg)"/>
  <ellipse cx="300" cy="415" rx="180" ry="10" fill="#000" opacity="0.35"/>
  <g transform="translate(300,60)">
    <path d="M-60,20 L-120,50 L-130,220 L-90,220 L-85,110 L-85,370 L85,370 L85,110 L90,220 L130,220 L120,50 L60,20 C50,45 30,55 0,55 C-30,55 -50,45 -60,20 Z" fill="url(#j-body)" stroke="#0b1010" stroke-width="2"/>
    <path d="M-85,110 L85,110" stroke="#0b1010" stroke-width="2" opacity="0.8"/>
    <g stroke="#0b1010" stroke-width="1.5" opacity="0.55">
      <line x1="-85" y1="140" x2="85" y2="140"/>
      <line x1="-85" y1="170" x2="85" y2="170"/>
      <line x1="-85" y1="200" x2="85" y2="200"/>
      <line x1="-85" y1="230" x2="85" y2="230"/>
      <line x1="-85" y1="260" x2="85" y2="260"/>
      <line x1="-85" y1="290" x2="85" y2="290"/>
      <line x1="-85" y1="320" x2="85" y2="320"/>
      <line x1="-85" y1="350" x2="85" y2="350"/>
    </g>
    <rect x="-6" y="80" width="12" height="290" fill="#e89558" opacity="0.9"/>
    <circle cx="0" cy="90" r="5" fill="#e89558"/>
  </g>
</svg>
